<!-- by TradingView --><svg width="56" height="56" viewBox="0 0 56 56" xmlns="http://www.w3.org/2000/svg"><path fill="#F0F3FA" d="M0 0h56v56H0z"/><path d="M43.6 29.9c-.05.24-.1.23-.1-.01-.07-1.68-.95-3.43-1.83-4.83a13.11 13.11 0 0 0-7.78-5.8l-.68-.13c-.4-.08-.74-.26-1.02-.55-.82-.85-1.91-1.6-2.83-2.38-.04-.03-.06-.02-.04.03.14.79.87 1.5 1.3 2.2.07-.02.1 0 .07.04l.05.2c.01.05-.01.07-.06.08-1.4.13-2.88.23-4.21.71a.92.92 0 0 1-.52.05 11.2 11.2 0 0 1-.53-.13c-1.8-.5-4.27-1.49-6.06-1.47-.04-.06-.1-.07-.2-.06-.04-.04-.05-.08-.05-.12 3.34-1.5 8-2.03 10.13-2.08 3.3-.09 5.12.29 7.76 1.59.28.14.3.11.05-.09-2.6-2.07-7.37-2.98-11-2.76-3 .18-7.5 1.98-9.35 2.8-.11.04-.12-.17-.27-.14-.08.02-.1 0-.04-.07 3.59-4.29 10.9-5.84 16.18-4.53 7.18 1.77 13.02 10.23 11.04 17.45Z"/><path d="M43.28 34.87c-.03.05-.04.08-.02.09-.21.04-.38.17-.6.21-.94.18-1.87.38-2.78.6-1 .25-1.8.35-2.39.32a4.78 4.78 0 0 1-4.35-2.92c-.2-.42-.3-.9-.47-1.35-.12-.29-.34-.42-.67-.4-2.15.14-4.46.19-6.62-.09-2.1-.27-4.14-.78-6.12-1.54-2.96-1.14-5.62-2.7-6.41-6-.2-.82-.08-1.41.04-2.18a.38.38 0 0 1 .1-.2.1.1 0 0 1 .13 0 .1.1 0 0 1 .03.04c.31 1.72 1.37 2.8 2.92 3.56a8.02 8.02 0 0 0 5.14.74v-.02c0-.01 0-.02-.02-.02l-2.06-1.9a.12.12 0 0 1 .07-.2c1.79-.15 3.54-.26 5.25-.34a6.24 6.24 0 0 0 4-1.57.17.17 0 0 1 .2.08l1.07 1.88c.57 1 .9 2.51 2.28 2.7.69.1 1.4.13 2.08.28 2.91.64 5.5 1.8 7.76 3.47a11.88 11.88 0 0 1 1.33 1.16.16.16 0 0 1-.1.2c-.62.27-1.24.58-1.85.9a14.12 14.12 0 0 0-2 1.35.06.06 0 0 0 .05.08l3.83.53c.04 0 .08.03.11.07.09.1.11.26.07.47Z" fill="#F78223"/><path d="M12.49 23.55c0-.02 0-.03.03-.03h.04l.02.03c.1.56.17 1.12.33 1.67a7.18 7.18 0 0 0 3.05 4 15.57 15.57 0 0 0 .99.62.12.12 0 0 1-.05.17l-4.11 2.05a.13.13 0 0 1-.1 0 .12.12 0 0 1-.07-.07c-.97-2.69-.63-5.7-.13-8.44ZM24.25 32.28c.03.04.08.05.14.03l-9.25 4.56a.22.22 0 0 1-.25-.04c-.11-.1-.2-.23-.29-.38-.45-.82-.94-1.58-1.28-2.42l-.35-.83a.3.3 0 0 1 .14-.38c1.59-.76 3.15-1.52 4.7-2.3a.59.59 0 0 1 .53 0c1.56.72 3.46 1.4 5.17 1.72.17.04.42.05.74.04ZM23.35 43.18a16.97 16.97 0 0 1-7.78-5.41.22.22 0 0 1 .13-.26c3.23-1.42 6.34-3.12 9.52-4.67.29-.14.64-.19 1.04-.14 1.68.18 3.46.14 5.22.1.48 0 .78.24.88.7a5.1 5.1 0 0 0 2.8 3.73c.94.46 1.96.6 3.03.42 1.3-.22 2.5-.44 3.6-.68.33-.08.4.02.19.3a17.29 17.29 0 0 1-5.85 4.92c-3.87 2.11-8.59 2.29-12.78 1Z" fill="#A5B4CB"/></svg>