<!-- by TradingView --><svg width="56" height="56" viewBox="0 0 56 56" xmlns="http://www.w3.org/2000/svg"><path fill="#F0F3FA" d="M0 0h56v56H0z"/><path d="M8 28v-8h1.6v6.41h2.9V28H8Zm7-8h-1.5v1H15v-1Zm0 2h-1.5v6H15v-6Zm11-2h1.5v1H26v-1Zm0 2h1.5v6H26v-6Zm-8-2h-1.5v2h-1v1.5h1V28H18v-4.5h1V22h-1v-2Zm2 0h1.5v2.67a2.4 2.4 0 0 1 1.61-.67c1.3 0 1.9 1.1 1.9 2.05V28H23.5v-3.54c-.02-.3-.4-.93-1.13-.93-.37 0-.66.2-.87.44V28H20v-8Zm12.5 6.87A2.67 2.67 0 0 1 30.42 28c-1.31 0-1.92-1.1-1.92-2.05V22H30v3.54c.02.3.43.93 1.17.93s1.21-.76 1.33-1.14V22H34v6h-1.5v-1.13Zm4-4.87H35v6h1.5v-6Zm0 1.13c.24-.38 1-1.13 2.03-1.13.79 0 1.32.4 1.61.94.32-.4.98-.94 1.86-.94 1.3 0 2 1.1 2 2.05V28h-1.5v-3.54c-.02-.3-.5-.93-1.23-.93-.36 0-.64.18-.85.4V28h-1.66v-3.54c-.02-.3-.24-.93-.97-.93s-1.17.76-1.29 1.14v-1.54Z" fill="#221D21"/><path fill-rule="evenodd" d="M35 29h-.5v.8h.5V29Zm0 2h-.5v6h.5v-6Zm-24.45-1L7 37h.67l.94-1.92h4.45l.97 1.92h.62l-3.52-7h-.58Zm2.26 4.58H8.86l1.95-3.97 2 3.97Zm2.79-2.52c.26-.44.87-1.06 1.85-1.06.98 0 1.58.66 1.86 1.32l.03-.06c.18-.42.82-1.26 1.96-1.26 1.43 0 2.05 1.4 2.05 2.17V37h-.54v-3.83c-.05-.55-.4-1.66-1.51-1.66-1.11 0-1.63.8-1.82 1.42.02.08.02.17.02.24V37h-.54v-3.83c-.04-.55-.4-1.66-1.5-1.66-1.2 0-1.71.93-1.86 1.56V37H15v-5.91h.6v.97Zm9.03 2.16h4.87c.03-1.08-.46-3.22-2.73-3.22s-2.8 2.14-2.77 3.22c.07.92.77 2.78 3 2.78a3.1 3.1 0 0 0 2.3-1.08l-.44-.36c-.28.31-1.04.94-1.86.94-1.03 0-2.37-.9-2.37-2.28Zm-.03-.56h4.26c-.02-.72-.45-2.17-2.03-2.17-1.59 0-2.14 1.45-2.23 2.17ZM30.5 31h.5v1.75A3 3 0 0 1 33.5 31v.58c-1.7.04-2.36 1.6-2.47 2.36L31 33.4V37h-.5v-6Zm8.4 6c.9 0 1.7-.42 2.23-1.08l-.37-.37c-.43.56-1.1.92-1.86.92A2.43 2.43 0 0 1 36.51 34a2.43 2.43 0 0 1 2.4-2.47c.74 0 1.4.35 1.84.9l.37-.37A2.86 2.86 0 0 0 38.9 31c-1.6 0-2.9 1.34-2.9 3s1.3 3 2.9 3Zm3.05-5.48.23.49c.22-.18.85-.53 1.62-.53.96 0 1.7.86 1.7 1.72v.36a4.8 4.8 0 0 0-1.8-.31c-1.33 0-2.2.87-2.2 1.97S42.43 37 43.7 37c.82 0 1.46-.67 1.8-1.2V37h.5v-4.1c-.15-.63-.78-1.9-2.13-1.9-1.06 0-1.72.35-1.91.52Zm3.55 3.34v-.8a4.7 4.7 0 0 0-1.8-.33c-1.23 0-1.72.78-1.72 1.36 0 .6.18 1.45 1.72 1.45 1.08 0 1.62-1 1.8-1.68Zm1.3 1.25.36-.48c.28.26 1.03.78 1.88.78 1.07 0 1.45-.53 1.45-1.08 0-.54-.9-.99-1.41-1.1l-.08-.01c-.56-.12-1.9-.4-1.9-1.64 0-1.3 1.34-1.58 1.98-1.58.63 0 1.28.3 1.8.69l-.33.45c-.22-.21-.82-.62-1.47-.62-.83 0-1.42.38-1.42 1.06 0 .67.77.95 1.48 1.08.7.12 1.86.6 1.86 1.67 0 1.08-.96 1.67-1.96 1.67-.8 0-1.8-.61-2.23-.89Z" fill="#8E8E96"/></svg>