<!-- by TradingView --><svg width="56" height="56" viewBox="0 0 56 56" xmlns="http://www.w3.org/2000/svg"><path fill="#5B944D" d="M0 0h56v56H0z"/><path d="M21 13v-2h14v2c2.18 0 5-.3 5 2.6v25.91c0 2.12-1.57 2.47-3.38 2.48L18.09 44C16.22 44 16 42.75 16 41.07V15.88c0-1.52.38-2.87 1.98-2.88H21Zm1 1h-3.97c-.91 0-1.03.72-1.03 1.64V41.7c0 .68.02 1.31.7 1.31h19.82c1.22 0 1.48-.6 1.48-1.8V15.25c0-.9-.56-1.25-1.45-1.25H34v-2H22v2Z" fill="#fff"/><path d="m28.6 16.6 1.2.18a.23.23 0 0 1 0 .45l-1.2.17a.23.23 0 0 0-.2.2l-.18 1.2a.23.23 0 0 1-.45 0l-.17-1.2a.23.23 0 0 0-.2-.2l-1.2-.18a.23.23 0 0 1 0-.45l1.2-.17a.23.23 0 0 0 .2-.2l.18-1.2a.23.23 0 0 1 .45 0l.17 1.2a.23.23 0 0 0 .2.2ZM32.87 22h-1.74c-.07 0-.13.06-.13.14v1.72c0 .08.04.14.11.14h1.76c.07 0 .13-.05.13-.13v-1.7c0-.09-.06-.17-.13-.17ZM29 31.1v1.81l-.04.05a.12.12 0 0 1-.04.03.11.11 0 0 1-.04.01h-5.76a.12.12 0 0 1-.08-.04.15.15 0 0 1-.04-.1V22.15c0-.04.01-.08.04-.1.02-.03.05-.05.08-.05h1.76c.06 0 .12.07.12.14v8.7c0 .07.07.16.14.16h3.7c.06 0 .16.03.16.1ZM32.9 25H31.1c-.05 0-.1.04-.1.1v7.8c0 .06.05.1.1.1h1.82c.05 0 .09-.04.09-.1v-7.8c0-.06-.04-.1-.1-.1ZM29.81 38H26.2c-.1 0-.19.07-.19.16v.35c0 .09.09.16.2.16h3.61c.1 0 .2-.07.2-.16v-.35c0-.09-.1-.16-.2-.16Z" fill="#fff"/></svg>